<svg width="32" height="32" viewBox="0 0 32 32" fill="none" xmlns="http://www.w3.org/2000/svg">
<g clip-path="url(#clip0_1_17)">
<rect width="32" height="32" fill="white"/>
<g clip-path="url(#clip1_1_17)">
<mask id="mask0_1_17" style="mask-type:luminance" maskUnits="userSpaceOnUse" x="1" y="0" width="30" height="32">
<path d="M30.3154 0H1.6593V32H30.3154V0Z" fill="white"/>
</mask>
<g mask="url(#mask0_1_17)">
<path d="M14.0313 31.4421L11.1072 29.7472V24.0961L15.9874 26.801L20.8675 24.0961V29.7472L17.9435 31.4421C17.3489 31.7873 16.6742 31.969 15.9874 31.9688C15.3006 31.969 14.6259 31.7873 14.0313 31.4421ZM26.5204 10.644C26.5205 10.4954 26.4815 10.3494 26.4075 10.2206C26.3335 10.0919 26.2271 9.98501 26.0988 9.91072C25.9706 9.83642 25.8252 9.79734 25.6772 9.79741C25.5291 9.79747 25.3837 9.83667 25.2555 9.91108L15.9945 15.1579L6.71891 9.91121C6.59076 9.83684 6.44537 9.79767 6.29736 9.79762C6.14935 9.79757 6.00394 9.83666 5.87575 9.91095C5.74755 9.98523 5.6411 10.0921 5.56708 10.2208C5.49307 10.3495 5.45412 10.4955 5.45412 10.6441V26.4704L3.64639 25.4225C3.05193 25.0775 2.55828 24.5816 2.21497 23.9846C1.87166 23.3875 1.69076 22.7103 1.69043 22.0209V9.97913C1.69075 9.28965 1.87166 8.61237 2.215 8.01528C2.55835 7.41818 3.05206 6.92225 3.64657 6.57728L14.0314 0.557786C14.6259 0.212735 15.3006 0.0310669 15.9874 0.0310669C16.6742 0.0310669 17.3489 0.212735 17.9435 0.557786L28.3284 6.57728C28.9229 6.92218 29.4167 7.4181 29.7601 8.01521C30.1034 8.61233 30.2843 9.28964 30.2845 9.97913V22.0209C30.2841 22.7103 30.1032 23.3875 29.7598 23.9846C29.4165 24.5816 28.9226 25.0775 28.3281 25.4222L26.5204 26.4702V10.644Z" fill="#44C9F6"/>
</g>
</g>
</g>
<defs>
<clipPath id="clip0_1_17">
<rect width="32" height="32" fill="white"/>
</clipPath>
<clipPath id="clip1_1_17">
<rect width="28.6815" height="32" fill="white" transform="translate(1.6593)"/>
</clipPath>
</defs>
</svg>
